# xmcd
#
# Track frame offsets: 
#        150
#        12625
#        24563
#        36613
#        47325
#        62525
#        70535
#        81738
#        91025
#        101860
#        113163
#        122373
#        136763
#        149975
#        162525
#        177150
#        189598
#        201375
#        213500
#        225825
#
# Disc length: 3201 seconds
#
# Revision: 0
# Processed by: cddbd v1.4PL0 Copyright (c) Steve Scherf et al.
# Submitted via: ExactAudioCopy v0.95a2
#
DISCID=1f0c7f14
DTITLE=Andy Williams - Andy's All-time Greatest Hits
DYEAR=1994
DGENRE=Blues
TTITLE0=Moon River
TTITLE1=Canadian Sunset
TTITLE2=Are You Sincere
TTITLE3=Butterfly
TTITLE4=The Village Of St. Bernadette
TTITLE5=Lips Of Wine
TTITLE6=The Hawaiian Wedding Song (Ke Kali Nei Au)
TTITLE7=Promise Me, Love
TTITLE8=Can't Get Used To Losing You
TTITLE9=I Like Your Kind Of Love
TTITLE10=A Fool Never Learns
TTITLE11=On The Street Where You Live
TTITLE12=Dear Heart
TTITLE13=Days of Wine And Roses
TTITLE14=Happy Heart
TTITLE15=Lonely Street
TTITLE16=Music To Watch Girls By
TTITLE17=Hopeless
TTITLE18=Ain't It True
TTITLE19=(Where Do I Begin) Love Story
EXTD=
EXTT0=
EXTT1=
EXTT2=
EXTT3=
EXTT4=
EXTT5=
EXTT6=
EXTT7=
EXTT8=
EXTT9=
EXTT10=
EXTT11=
EXTT12=
EXTT13=
EXTT14=
EXTT15=
EXTT16=
EXTT17=
EXTT18=
EXTT19=
PLAYORDER=
